# xmcd
#
# Track frame offsets: 
#        300
#        19614
#        34981
#        61541
#        83188
#        109995
#        129167
#        149776
#        173366
#        193213
#        207442
#
# Disc length: 2962 seconds
#
# Revision: 0
# Processed by: cddbd v1.5.2PL0 Copyright (c) Steve Scherf et al.
# Submitted via: ExactAudioCopyFreeDBPlugin 1.0
#
DISCID=980b8e0b
DTITLE=DREAMS COME TRUE - DREAMAGE -DREAMS COME TRUE "LOVE BALLAD COLL
DTITLE=ECTION" DISC BLUE -torch song collection- [Disc 1]
DYEAR=2003
DGENRE=R&B
TTITLE0=いつのまに a-mix (ピアノ・バージョン)
TTITLE1=LOVE LOVE LOVE -single version-
TTITLE2=悲しいKiss
TTITLE3=2人のDIFFERENCE
TTITLE4=LAT.43°N～forty-three degrees north latitude～ -strings remix ve
TTITLE4=rsion-
TTITLE5=三日月
TTITLE6=愛してる 愛してた
TTITLE7=come closer
TTITLE8=プライドなんて知らない
TTITLE9=SNOW DANCE ～a capella version～
TTITLE10=すき -single version
EXTD=
EXTT0=
EXTT1=
EXTT2=
EXTT3=
EXTT4=
EXTT5=
EXTT6=
EXTT7=
EXTT8=
EXTT9=
EXTT10=
PLAYORDER=
